<?xml version="1.0" standalone="no"?>
<!DOCTYPE svg PUBLIC "-//W3C//DTD SVG 20010904//EN"
 "http://www.w3.org/TR/2001/REC-SVG-20010904/DTD/svg10.dtd">
<svg version="1.0" xmlns="http://www.w3.org/2000/svg"
 width="322.000000pt" height="119.000000pt" viewBox="0 0 322.000000 119.000000"
 preserveAspectRatio="xMidYMid meet">

<g transform="translate(0.000000,119.000000) scale(0.100000,-0.100000)"
fill="#000000" stroke="none">
<path d="M492 1028 c-8 -8 -9 -15 -1 -25 16 -19 29 -16 29 6 0 25 -13 34 -28
19z"/>
<path d="M489 938 c-6 -31 -4 -190 3 -194 15 -9 16 -4 24 99 6 86 5 97 -10 97
-9 0 -16 -1 -17 -2z"/>
<path d="M596 909 c-22 -26 -26 -40 -25 -85 3 -81 54 -119 123 -90 55 23 46
39 -15 31 -39 -5 -54 -4 -60 6 -15 24 -11 26 47 31 64 5 77 18 70 68 -11 71
-94 95 -140 39z m86 -16 c10 -9 18 -24 18 -35 0 -15 -8 -18 -45 -18 -50 0 -59
17 -28 52 20 22 31 23 55 1z"/>
<path d="M790 835 c0 -42 5 -85 10 -96 16 -29 66 -52 88 -40 11 6 28 7 40 4
22 -5 22 -3 22 101 0 88 -3 106 -15 106 -11 0 -15 -13 -17 -52 0 -29 -1 -60 0
-69 2 -27 -34 -52 -62 -45 -29 7 -40 45 -34 117 2 35 0 44 -14 47 -16 3 -18
-5 -18 -73z"/>
<path d="M996 901 c-3 -5 6 -52 21 -105 32 -113 48 -122 81 -48 12 27 22 56
22 65 0 38 17 13 35 -53 13 -49 24 -70 35 -70 9 1 33 38 62 98 39 82 44 99 33
111 -22 23 -42 6 -60 -51 -29 -88 -40 -87 -53 8 -6 43 -10 49 -31 49 -20 0
-27 -11 -51 -74 -15 -41 -29 -70 -32 -65 -3 5 -11 39 -19 77 -12 62 -28 83
-43 58z"/>
<path d="M307 873 l-28 -4 2 -95 c3 -99 8 -119 30 -112 10 3 13 23 10 77 -3
78 7 101 43 101 36 0 46 -20 46 -91 0 -66 11 -92 32 -71 6 6 7 38 2 83 -10
107 -35 127 -137 112z"/>
<path d="M1333 838 c-44 -47 -38 -150 10 -183 41 -28 127 -10 127 27 0 22 -7
22 -51 4 -46 -18 -78 -5 -79 33 0 11 13 13 64 8 69 -7 76 -2 76 49 0 38 -16
61 -51 73 -48 16 -73 13 -96 -11z m85 -40 c25 -25 13 -38 -33 -38 -30 0 -45 4
-45 13 0 19 21 37 45 37 12 0 26 -5 33 -12z"/>
<path d="M1867 564 c-33 -18 -47 -50 -47 -109 0 -57 7 -73 41 -90 23 -12 34
-13 66 -2 21 6 39 19 41 29 3 14 -3 15 -37 11 -41 -6 -71 8 -71 31 0 7 19 10
56 7 64 -3 74 4 74 57 0 23 -8 40 -26 57 -31 28 -57 31 -97 9z m71 -40 c12 -8
22 -24 22 -35 0 -19 -4 -20 -42 -14 -56 9 -66 20 -43 45 22 24 33 25 63 4z"/>
<path d="M581 514 c-24 -31 -29 -128 -8 -155 20 -27 56 -41 88 -34 24 6 29 3
29 -13 0 -41 -36 -49 -107 -27 -17 6 -23 3 -23 -8 0 -42 97 -51 135 -12 23 22
25 32 27 125 1 55 2 110 2 122 1 20 -5 22 -61 25 -56 3 -63 1 -82 -23z m93
-30 c19 -18 22 -94 4 -112 -19 -19 -66 -15 -78 7 -37 69 24 155 74 105z"/>
<path d="M2221 526 c-53 -29 -67 -110 -28 -159 28 -35 86 -47 110 -22 22 22
22 39 0 30 -41 -17 -62 -16 -82 4 -51 51 2 145 67 120 33 -13 47 -1 26 22 -20
22 -59 24 -93 5z"/>
<path d="M2377 523 c-3 -10 -7 -74 -9 -142 -2 -89 0 -125 9 -128 8 -3 14 19
19 67 7 73 21 100 53 100 31 0 44 -28 45 -98 1 -87 19 -97 26 -15 9 111 -16
152 -86 138 l-34 -6 3 47 c2 47 -16 73 -26 37z"/>
<path d="M2579 511 c-18 -14 -23 -31 -27 -78 -4 -57 -3 -61 28 -86 17 -15 40
-27 51 -27 54 0 95 109 64 169 -23 45 -75 55 -116 22z m87 -36 c19 -30 11 -80
-19 -112 -25 -28 -44 -29 -52 -3 -4 11 -9 18 -13 16 -15 -9 0 99 16 112 25 19
50 14 68 -13z"/>
<path d="M2957 523 c-2 -5 -10 -53 -16 -108 -7 -55 -14 -108 -16 -118 -4 -23
28 -62 44 -53 9 6 9 11 0 22 -12 14 -9 97 7 217 4 31 3 47 -4 47 -6 0 -13 -3
-15 -7z"/>
<path d="M1157 513 c-4 -3 -7 -16 -7 -28 0 -12 -3 -25 -6 -28 -4 -4 -8 -48
-10 -99 -2 -74 1 -97 13 -110 9 -10 22 -18 29 -18 22 0 28 22 10 36 -15 11
-17 22 -11 78 6 55 10 65 28 68 28 4 34 28 8 35 -16 4 -21 13 -21 39 0 32 -16
45 -33 27z"/>
<path d="M2773 488 c-40 -44 -35 -145 7 -168 32 -17 75 -11 98 13 30 32 31
113 1 151 -27 34 -77 36 -106 4z m85 -20 c16 -16 16 -100 0 -116 -18 -18 -53
-14 -73 8 -13 15 -16 28 -10 57 4 21 11 44 17 51 13 15 50 16 66 0z"/>
<path d="M277 493 c-3 -5 -9 -52 -13 -105 -4 -69 -3 -97 6 -103 18 -11 24 1
31 72 7 67 18 84 54 82 38 -2 45 1 45 21 0 17 -7 20 -48 20 -26 0 -53 5 -59
11 -6 6 -13 7 -16 2z"/>
<path d="M1487 482 c-21 -23 -22 -66 -1 -83 9 -7 34 -15 57 -18 47 -7 61 -33
27 -51 -16 -9 -28 -8 -52 4 -41 21 -48 20 -48 -4 0 -25 29 -40 74 -40 42 0 76
29 76 64 0 30 -22 48 -73 61 -47 12 -57 29 -27 45 16 8 30 9 52 1 40 -14 49
-5 19 20 -30 24 -83 25 -104 1z"/>
<path d="M2040 471 c-14 -4 -31 -19 -39 -33 -13 -23 -13 -29 2 -52 10 -14 28
-28 42 -31 14 -3 37 -7 51 -10 17 -4 24 -11 22 -23 -4 -24 -41 -26 -84 -6 -30
14 -37 15 -44 4 -28 -45 99 -78 146 -39 15 12 18 46 8 73 -3 9 -31 23 -61 32
-41 12 -53 20 -51 32 3 13 14 17 43 16 22 0 48 -4 58 -8 12 -6 17 -4 17 8 0
27 -65 49 -110 37z"/>
<path d="M775 444 c-20 -22 -25 -37 -25 -81 0 -45 4 -58 26 -80 22 -22 32 -25
71 -20 51 5 73 21 56 38 -9 9 -19 9 -42 0 -36 -16 -68 -7 -76 20 -10 30 0 34
58 22 60 -13 77 -2 77 49 0 71 -96 105 -145 52z m103 -48 c3 -13 -6 -16 -47
-16 -28 0 -51 4 -51 8 0 13 24 39 40 45 19 6 54 -16 58 -37z"/>
<path d="M1299 438 c-62 -50 -44 -186 26 -204 47 -12 102 13 91 42 -5 13 -9
15 -18 6 -16 -16 -71 -15 -86 0 -27 27 -13 39 41 38 28 -1 58 -1 65 -1 19 1
15 75 -6 101 -21 26 -89 37 -113 18z m85 -50 c9 -12 16 -26 16 -31 0 -9 -90 0
-99 9 -8 8 33 44 50 44 10 0 25 -10 33 -22z"/>
<path d="M1690 423 c-40 -16 -53 -78 -22 -106 12 -11 36 -17 64 -17 43 0 68
-17 51 -34 -10 -10 -73 -7 -93 4 -13 7 -21 6 -30 -5 -19 -23 22 -55 70 -55 43
0 90 33 90 63 0 28 -35 56 -80 64 -53 10 -66 36 -26 54 20 9 32 9 51 1 29 -14
33 -2 7 21 -18 17 -53 21 -82 10z"/>
<path d="M415 391 c-31 -13 -42 -31 -48 -81 -9 -69 1 -100 37 -115 55 -23 139
6 108 37 -9 9 -15 9 -24 0 -17 -17 -64 -15 -83 4 -29 29 -13 39 58 36 l67 -4
0 40 c0 23 -7 49 -17 61 -20 24 -68 35 -98 22z m69 -53 c21 -30 8 -40 -42 -32
-42 7 -52 20 -30 42 19 19 55 14 72 -10z"/>
<path d="M949 353 c0 -21 -1 -62 -2 -92 -1 -36 2 -56 11 -58 8 -3 12 6 12 29
0 70 12 109 36 120 19 9 28 8 45 -8 18 -16 20 -26 15 -86 -3 -37 -1 -70 4 -73
14 -9 21 11 27 82 5 60 3 71 -17 96 -19 23 -28 27 -76 27 l-54 0 -1 -37z"/>
</g>
</svg>
